<?xml version="1.0" encoding="utf-8"?>
<!-- Generator: Adobe Illustrator 22.0.1, SVG Export Plug-In . SVG Version: 6.00 Build 0)  -->
<svg version="1.1" id="图层_1" xmlns="http://www.w3.org/2000/svg" xmlns:xlink="http://www.w3.org/1999/xlink" x="0px" y="0px"
	 viewBox="0 0 540 108" style="enable-background:new 0 0 540 108;" xml:space="preserve">
<style type="text/css">
	.st0{fill:#2578B5;}
	.st1{fill:#212121;}
	.st2{clip-path:url(#SVGID_2_);fill:#212121;}
	.st3{clip-path:url(#SVGID_2_);fill:url(#SVGID_3_);}
	.st4{clip-path:url(#SVGID_2_);fill:#FFFFFF;}
	.st5{clip-path:url(#SVGID_2_);fill:#2578B5;}
	.st6{clip-path:url(#SVGID_2_);fill:url(#SVGID_4_);}
	.st7{clip-path:url(#SVGID_2_);fill:#63A7E7;}
</style>
<g>
	<path class="st0" d="M108,39.9h3.8l10,16.6l10.1-16.6h3.7v29.7h-3.9v-23l-8.3,13.6h-3.1L112,46.7v22.9h-4V39.9z"/>
	<path class="st1" d="M141.4,68.1c-1.4-1.2-2.2-2.9-2.2-5.1v-8.8c0-2.1,0.7-3.8,2.2-5.1c1.4-1.2,3.7-1.9,6.8-1.9s5.4,0.6,6.8,1.9
		c1.5,1.2,2.2,2.9,2.2,5.1V63c0,2.1-0.7,3.8-2.2,5.1c-1.5,1.2-3.7,1.9-6.8,1.9C145.2,70,142.9,69.3,141.4,68.1z M153.4,63.4V54
		c0-2.4-1.7-3.7-5.1-3.7s-5.1,1.2-5.1,3.7v9.4c0,2.4,1.7,3.6,5.1,3.6S153.4,65.8,153.4,63.4z"/>
	<path class="st1" d="M165.1,69.4c-1.2-0.4-2.1-1-2.8-1.7s-1.2-1.5-1.5-2.4s-0.5-1.8-0.5-2.9v-8.3c0-2.1,0.8-3.7,2.4-5
		s3.7-1.9,6.4-1.9c1.1,0,2.1,0.1,2.9,0.2c0.8,0.1,1.6,0.4,2.4,0.7s1.3,0.8,1.8,1.3s0.8,1.2,1.1,2.1c0.3,0.9,0.4,1.9,0.4,3L174,55
		c0-1-0.1-1.8-0.2-2.4c-0.2-0.6-0.4-1.1-0.8-1.4s-0.9-0.6-1.4-0.7s-1.3-0.2-2.3-0.2c-1.7,0-3,0.3-3.8,0.9s-1.2,1.6-1.2,3v8.5
		c0,1.5,0.4,2.6,1.3,3.2s2.1,1,3.7,1c1.9,0,3.2-0.2,3.8-0.7s1-1.5,1.1-3.2h3.6c-0.2,2.5-0.9,4.3-2.2,5.3s-3.3,1.5-6.3,1.5
		C167.6,70,166.2,69.8,165.1,69.4z"/>
	<path class="st1" d="M180.7,38.6h3.9v20.1l10.4-11h4.2l-8.8,9.6l9.7,12.2h-4.5l-7.8-10.1l-3.3,3.2v6.8h-3.9V38.6H180.7z"/>
	<path class="st0" d="M212.9,39.9h4.1v26.5h13.3v3.2h-17.4L212.9,39.9L212.9,39.9z"/>
	<path class="st1" d="M234.9,68.1c-1.4-1.2-2.2-2.9-2.2-5.1v-8.8c0-2.1,0.7-3.8,2.2-5.1c1.4-1.2,3.7-1.9,6.8-1.9s5.4,0.6,6.8,1.9
		c1.5,1.2,2.2,2.9,2.2,5.1V63c0,2.1-0.7,3.8-2.2,5.1c-1.5,1.2-3.7,1.9-6.8,1.9C238.6,70,236.3,69.3,234.9,68.1z M246.8,63.4V54
		c0-2.4-1.7-3.7-5.1-3.7s-5.1,1.2-5.1,3.7v9.4c0,2.4,1.7,3.6,5.1,3.6S246.8,65.8,246.8,63.4z"/>
	<path class="st1" d="M258.5,69.4c-1.2-0.4-2.1-1-2.8-1.7s-1.2-1.5-1.5-2.4s-0.5-1.8-0.5-2.9v-8.3c0-2.1,0.8-3.7,2.4-5
		s3.7-1.9,6.4-1.9c1.1,0,2.1,0.1,2.9,0.2c0.8,0.1,1.6,0.4,2.4,0.7s1.3,0.8,1.8,1.3s0.8,1.2,1.1,2.1c0.3,0.9,0.4,1.9,0.4,3l-3.7,0.3
		c0-1-0.1-1.8-0.2-2.4c-0.2-0.6-0.4-1.1-0.8-1.4s-0.9-0.6-1.4-0.7s-1.3-0.2-2.3-0.2c-1.7,0-3,0.3-3.8,0.9s-1.2,1.6-1.2,3v8.5
		c0,1.5,0.4,2.6,1.3,3.2s2.1,1,3.7,1c1.9,0,3.2-0.2,3.8-0.7c0.6-0.5,1-1.5,1.1-3.2h3.6c-0.2,2.5-0.9,4.3-2.2,5.3s-3.3,1.5-6.3,1.5
		C261,70,259.6,69.8,258.5,69.4z"/>
	<path class="st1" d="M275.2,60.4c1-0.9,3-1.9,5.9-2.9l4.5-1.7c0.4-0.2,0.7-0.4,0.9-0.7c0.2-0.3,0.2-0.8,0.2-1.6
		c0-1-0.3-1.8-0.8-2.4c-0.5-0.6-1.6-0.8-3.2-0.8c-0.8,0-1.6,0.1-2.2,0.2c-0.6,0.1-1.1,0.3-1.4,0.5s-0.6,0.4-0.8,0.7
		s-0.3,0.6-0.3,0.9s-0.1,0.6-0.1,1v1h-3.7v-1c0-2.1,0.7-3.7,2.1-4.7s3.6-1.5,6.4-1.5c2.7,0,4.7,0.6,5.9,1.9s1.8,3.1,1.8,5.5V64
		c0,1.1,0.1,1.9,0.4,2.2s0.9,0.5,1.8,0.5l-0.5,3h-0.8c-1.4,0-2.4-0.3-3.1-0.8s-1.2-1.3-1.5-2.5c-0.3,0.4-0.6,0.8-1,1.2
		s-0.8,0.7-1.4,1.1s-1.2,0.7-2.1,0.9c-0.8,0.2-1.7,0.3-2.6,0.3c-4.2,0-6.3-2-6.3-6C273.7,62.5,274.2,61.3,275.2,60.4z M284.4,66
		c1.3-0.7,2-1.6,2.3-2.6v-5.3l-4.9,1.9c-1.7,0.6-2.9,1.2-3.5,1.8s-1,1.3-1,2.2c0,1.2,0.2,2,0.7,2.5s1.4,0.7,2.7,0.7
		C281.9,67.1,283.2,66.7,284.4,66z"/>
	<path class="st1" d="M300.3,68.2c-1.3-1-2-2.6-2-4.9V50.7h-3.6v-2.9h3.8l0.5-6.7h3.2v6.7h5.5v2.9h-5.5v12.4c0,1.4,0.4,2.3,1.2,2.7
		s2.2,0.7,4.1,0.7h0.4l-0.4,3.2h-0.6C303.8,69.7,301.6,69.2,300.3,68.2z"/>
	<path class="st1" d="M310.9,38h4v4.3h-4V38z M311,47.8h3.9v21.7H311V47.8z"/>
	<path class="st1" d="M320.3,68.1c-1.4-1.2-2.2-2.9-2.2-5.1v-8.8c0-2.1,0.7-3.8,2.2-5.1c1.4-1.2,3.7-1.9,6.8-1.9
		c3.1,0,5.4,0.6,6.8,1.9c1.5,1.2,2.2,2.9,2.2,5.1V63c0,2.1-0.7,3.8-2.2,5.1c-1.5,1.2-3.7,1.9-6.8,1.9S321.8,69.3,320.3,68.1z
		 M332.3,63.4V54c0-2.4-1.7-3.7-5.1-3.7S322,51.5,322,54v9.4c0,2.4,1.7,3.6,5.1,3.6S332.3,65.8,332.3,63.4z"/>
	<path class="st1" d="M339.6,47.8h3.9v2.1c1.4-1.7,3.6-2.5,6.4-2.5c1.3,0,2.4,0.2,3.4,0.5s1.8,0.8,2.3,1.4c0.6,0.6,1,1.3,1.3,2
		s0.4,1.6,0.4,2.5v15.8h-3.9v-16c0-1-0.4-1.8-1.2-2.4s-1.9-0.8-3.3-0.8c-1.8,0-3.2,0.3-4.1,1s-1.4,1.6-1.4,2.7v15.5h-3.9V47.8H339.6
		z"/>
	<path class="st0" d="M371.8,39.9h11.9c5.5,0,8.2,3.1,8.2,9.3c0,3.4-0.7,5.8-2.1,7.3s-3.5,2.2-6.2,2.2H376v10.8h-4.1V39.9H371.8z
		 M383.7,55.5c0.7,0,1.3-0.1,1.8-0.3s0.9-0.5,1.2-0.9s0.5-0.8,0.7-1.4s0.3-1.1,0.3-1.6s0.1-1.1,0.1-1.8s0-1.3-0.1-1.8
		c0-0.5-0.1-1.1-0.3-1.7c-0.2-0.6-0.4-1.1-0.6-1.5c-0.3-0.4-0.7-0.7-1.2-1s-1.1-0.4-1.8-0.4H376v12.5L383.7,55.5L383.7,55.5z"/>
	<path class="st1" d="M395.1,47.8h3.9v3.5c0.3-0.9,0.9-1.6,1.8-2.2c0.9-0.6,1.8-1,2.7-1.2c1-0.2,2-0.3,3-0.3l-0.1,3.3
		c-1.2,0-2.4,0.2-3.6,0.5s-2.1,0.8-2.8,1.4c-0.7,0.6-1.1,1.3-1.1,2v14.8H395V47.8H395.1z"/>
	<path class="st1" d="M410.8,68.1c-1.4-1.2-2.2-2.9-2.2-5.1v-8.8c0-2.1,0.7-3.8,2.2-5.1c1.4-1.2,3.7-1.9,6.8-1.9
		c3.1,0,5.4,0.6,6.8,1.9c1.5,1.2,2.2,2.9,2.2,5.1V63c0,2.1-0.7,3.8-2.2,5.1c-1.5,1.2-3.7,1.9-6.8,1.9S412.2,69.3,410.8,68.1z
		 M422.8,63.4V54c0-2.4-1.7-3.7-5.1-3.7s-5.1,1.2-5.1,3.7v9.4c0,2.4,1.7,3.6,5.1,3.6S422.8,65.8,422.8,63.4z"/>
	<path class="st1" d="M428.8,47.8h3.9l6.5,17.6l5.8-17.6h3.8l-7.7,21.7h-3.9L428.8,47.8z"/>
	<path class="st1" d="M451.4,38h4v4.3h-4V38z M451.5,47.8h3.9v21.7h-3.9V47.8z"/>
	<path class="st1" d="M460.8,68c-1.4-1.3-2.1-3.1-2.1-5.3v-8.2c0-2.3,0.7-4,2.2-5.2s3.8-1.8,6.8-1.8c0.7,0,1.5,0.1,2.5,0.2
		c0.9,0.2,1.7,0.3,2.4,0.6v-9.6h3.9v30.9h-2.6l-0.6-1.4c-0.7,0.5-1.6,1-2.6,1.3s-2.2,0.6-3.2,0.6C464.3,70,462.2,69.3,460.8,68z
		 M470.4,66.5c0.9-0.3,1.6-0.6,2.2-0.9V51.2c-1.2-0.6-2.8-0.9-4.8-0.9c-1.6,0-2.9,0.3-3.8,0.9c-1,0.6-1.4,1.5-1.4,2.8v8.9
		c0,1.3,0.5,2.3,1.4,3s2.1,1,3.6,1C468.5,66.9,469.5,66.8,470.4,66.5z"/>
	<path class="st1" d="M482,68c-1.4-1.3-2.1-3.4-2.1-6.1v-7.6c0-2.1,0.7-3.8,2.2-5.1s3.7-1.8,6.7-1.8c2.9,0,5.1,0.6,6.5,1.7
		s2.2,2.8,2.2,4.9v5.2h-13.7v3.1c0,1.8,0.4,3.1,1.1,3.8s2.1,1.1,4.1,1.1c0.6,0,1,0,1.3,0s0.6,0,1,0s0.7-0.1,0.9-0.1s0.4-0.1,0.6-0.2
		s0.4-0.2,0.5-0.4c0.1-0.2,0.2-0.3,0.3-0.6s0.2-0.5,0.3-0.8c0.1-0.3,0.1-0.7,0.2-1.1h3.4c-0.1,1.3-0.4,2.3-0.7,3.1s-0.8,1.4-1.5,1.9
		s-1.5,0.8-2.5,1s-2.2,0.2-3.8,0.2C485.7,70,483.4,69.3,482,68z M493.7,56.5v-3c0-1.2-0.4-2.1-1.3-2.5c-0.8-0.5-2.1-0.7-3.7-0.7
		s-2.9,0.3-3.7,0.8c-0.9,0.6-1.3,1.5-1.3,2.8v2.6C483.7,56.5,493.7,56.5,493.7,56.5z"/>
	<path class="st1" d="M500.7,47.8h3.9v3.5c0.3-0.9,0.9-1.6,1.8-2.2c0.9-0.6,1.8-1,2.7-1.2c1-0.2,2-0.3,3-0.3l-0.1,3.3
		c-1.2,0-2.4,0.2-3.6,0.5s-2.1,0.8-2.8,1.4c-0.7,0.6-1.1,1.3-1.1,2v14.8h-3.9V47.8H500.7z"/>
</g>
<g>
	<defs>
		<circle id="SVGID_1_" cx="54" cy="54" r="36"/>
	</defs>
	<clipPath id="SVGID_2_">
		<use xlink:href="#SVGID_1_"  style="overflow:visible;"/>
	</clipPath>
	<rect class="st2" width="108" height="108"/>
	
		<linearGradient id="SVGID_3_" gradientUnits="userSpaceOnUse" x1="116.265" y1="-150.9068" x2="116.265" y2="-303.6418" gradientTransform="matrix(0.7071 -0.7071 0.3536 0.3536 79.1419 243.5654)">
		<stop  offset="0" style="stop-color:#000000;stop-opacity:0"/>
		<stop  offset="1" style="stop-color:#000000;stop-opacity:0.4"/>
	</linearGradient>
	<polygon class="st3" points="108,74 108,108 74,108 37,71 71,37 	"/>
	<circle class="st4" cx="54" cy="54" r="24"/>
	<path class="st2" d="M42,66L42,66c-1.7,0-3-1.3-3-3V45c0-1.7,1.3-3,3-3h0c1.7,0,3,1.3,3,3v18C45,64.7,43.7,66,42,66z"/>
	<path class="st2" d="M54,64L54,64c-1.7,0-3-1.3-3-3V47c0-1.7,1.3-3,3-3h0c1.7,0,3,1.3,3,3v14C57,62.7,55.7,64,54,64z"/>
	<path class="st2" d="M66,66L66,66c-1.7,0-3-1.3-3-3V45c0-1.7,1.3-3,3-3l0,0c1.7,0,3,1.3,3,3v18C69,64.7,67.7,66,66,66z"/>
	<polygon class="st5" points="108,27 18,108 108,108 	"/>
	<linearGradient id="SVGID_4_" gradientUnits="userSpaceOnUse" x1="70.9926" y1="74.6917" x2="104.125" y2="111.4891">
		<stop  offset="0" style="stop-color:#004D85;stop-opacity:0"/>
		<stop  offset="8.000000e-02" style="stop-color:#004D85;stop-opacity:0.5"/>
	</linearGradient>
	<polygon class="st6" points="108,41.4 34,108 108,108 	"/>
	<polygon class="st7" points="108,43.2 36,108 108,108 	"/>
</g>
</svg>
